<?xml version="1.0" encoding="UTF-8" standalone="no"?>
<!-- Created with Inkscape (http://www.inkscape.org/) -->

<svg
   width="140mm"
   height="60mm"
   viewBox="0 0 140 60"
   version="1.1"
   id="svg5"
   inkscape:version="1.1 (c68e22c387, 2021-05-23)"
   sodipodi:docname="djam.svg"
   xmlns:inkscape="http://www.inkscape.org/namespaces/inkscape"
   xmlns:sodipodi="http://sodipodi.sourceforge.net/DTD/sodipodi-0.dtd"
   xmlns="http://www.w3.org/2000/svg"
   xmlns:svg="http://www.w3.org/2000/svg">
  <sodipodi:namedview
     id="namedview7"
     pagecolor="#ffffff"
     bordercolor="#666666"
     borderopacity="1.0"
     inkscape:pageshadow="2"
     inkscape:pageopacity="0.0"
     inkscape:pagecheckerboard="0"
     inkscape:document-units="mm"
     showgrid="false"
     showguides="true"
     inkscape:guide-bbox="true"
     inkscape:zoom="0.74118967"
     inkscape:cx="39.800878"
     inkscape:cy="12.817232"
     inkscape:window-width="1920"
     inkscape:window-height="1017"
     inkscape:window-x="1912"
     inkscape:window-y="-8"
     inkscape:window-maximized="1"
     inkscape:current-layer="layer1" />
  <defs
     id="defs2">
    <rect
       x="256.34464"
       y="45.872199"
       width="365.6284"
       height="161.90188"
       id="rect7065" />
    <rect
       x="256.34464"
       y="45.8722"
       width="380.46941"
       height="62.062386"
       id="rect7065-7" />
  </defs>
  <g
     inkscape:label="Layer 1"
     inkscape:groupmode="layer"
     id="layer1">
    <path
       id="rect4048"
       style="fill:#000000;fill-opacity:1;stroke-width:0.105833;stop-color:#000000"
       d="M 22.800081,5.0000002 C 14.989132,4.9999983 8.6571051,11.332025 8.6571051,19.142974 v 8.403869 h 0.2647845 c -1.1117458,0 -2.0067615,0.924276 -2.0067615,2.072321 v 12.189894 c 0,0.09836 0.00731,0.194898 0.019724,0.289524 -0.00971,0.145028 -0.016372,0.290176 -0.019724,0.435382 C 6.9151814,49.418752 13.997129,54.999965 22.733165,55 c 8.736065,-3e-6 15.818055,-5.581226 15.818109,-12.466036 -3.02e-4,-0.162927 -0.0046,-0.325823 -0.01306,-0.48861 0.0082,-0.07757 0.01306,-0.156303 0.01306,-0.236296 V 29.619164 c 0,-1.148045 -0.894935,-2.072321 -2.006681,-2.072321 H 13.532747 v -8.403869 c 2e-6,-5.118206 4.149128,-9.2673321 9.267334,-9.2673341 5.118204,4e-6 9.267329,4.1491301 9.267331,9.2673341 h 8.2e-5 v 3.171713 h 4.875642 v -3.171713 c 0,-7.81098 -6.332074,-14.1430198 -14.143055,-14.1429738 z m -0.06694,28.6691548 c 2.034845,-1.5e-5 3.684429,1.649534 3.684457,3.684379 -6.48e-4,1.433602 -0.8328,2.736666 -2.133139,3.34027 v 3.779333 0.152772 h -0.0082 c -0.07853,0.793378 -0.745628,1.398072 -1.542884,1.398539 -0.797258,-4.64e-4 -1.464367,-0.605157 -1.542892,-1.398539 h -0.0082 v -0.152772 -3.779333 c -1.300314,-0.603621 -2.132439,-1.906682 -2.133075,-3.34027 2.7e-5,-2.034818 1.649567,-3.684355 3.684385,-3.684379 z"
       sodipodi:nodetypes="csccsscccccssscssccccsccccccccccccccc" />
    <g
       aria-label="DJAM"
       transform="matrix(0.26458333,0,0,0.26458333,-23.588332,-9.0748601)"
       id="text7063"
       style="font-size:133.333px;line-height:1.25;font-family:'Lucida Sans Unicode';-inkscape-font-specification:'Lucida Sans Unicode';white-space:pre;shape-inside:url(#rect7065)">
      <path
         d="M 268.77861,168.25698 V 71.903061 h 32.03117 q 14.32288,0 23.11192,3.190097 8.85415,3.190096 15.29944,10.807264 10.22133,12.109344 10.22133,31.900958 0,22.33067 -11.97914,36.19783 -6.5104,7.61716 -15.10412,10.93747 -8.52863,3.3203 -21.35412,3.3203 z m 13.67184,-10.22133 h 17.51298 q 18.74995,0 26.56243,-10.09112 8.39842,-10.74216 8.39842,-28.84107 0,-16.99214 -8.26821,-26.692638 -5.01301,-5.924464 -11.97914,-8.072896 -6.96612,-2.213536 -20.96348,-2.213536 h -11.263 z"
         style="font-size:133.333px;line-height:1.25;font-family:'Lucida Sans Unicode';-inkscape-font-specification:'Lucida Sans Unicode';white-space:pre;shape-inside:url(#rect7065)"
         id="path49403" />
      <path
         d="m 344.23415,186.16058 v -12.10934 q 7.81248,2.53905 13.93226,2.53905 7.68227,0 10.74216,-4.49217 3.12499,-4.49218 3.12499,-15.55986 V 71.903061 h 13.67184 v 84.179469 q 0,31.44524 -29.75253,31.44524 -4.55728,0 -11.71872,-1.36719 z"
         style="font-size:133.333px;line-height:1.25;font-family:'Lucida Sans Unicode';-inkscape-font-specification:'Lucida Sans Unicode';white-space:pre;shape-inside:url(#rect7065)"
         id="path49405" />
      <path
         d="m 398.79131,168.25698 38.21605,-96.353919 h 13.54163 l 37.63011,96.353919 h -14.77861 l -10.48174,-26.69264 h -40.82021 l -10.61195,26.69264 z m 27.27857,-36.84886 H 458.9474 L 442.5412,89.871766 Z"
         style="font-size:133.333px;line-height:1.25;font-family:'Lucida Sans Unicode';-inkscape-font-specification:'Lucida Sans Unicode';white-space:pre;shape-inside:url(#rect7065)"
         id="path49407" />
      <path
         d="M 502.11135,168.25698 V 71.903061 h 18.94526 l 26.69264,74.544079 27.47389,-74.544079 h 16.92704 V 168.25698 H 579.3898 V 89.871766 L 552.82736,161.81169 H 539.61125 L 513.83007,89.676454 v 78.580526 z"
         style="font-size:133.333px;line-height:1.25;font-family:'Lucida Sans Unicode';-inkscape-font-specification:'Lucida Sans Unicode';white-space:pre;shape-inside:url(#rect7065)"
         id="path49409" />
    </g>
    <g
       aria-label="Authentication Provider"
       transform="matrix(0.2350522,0,0,0.2350522,-12.790726,32.272126)"
       id="text7063-5"
       style="font-size:32px;line-height:1.25;font-family:'Lucida Sans Unicode';-inkscape-font-specification:'Lucida Sans Unicode';white-space:pre;shape-inside:url(#rect7065-7);stroke-width:1.12564">
      <path
         d="m 256.60937,75.245266 9.17188,-23.125 h 3.25 l 9.03125,23.125 h -3.54688 L 272,68.839016 h -9.79688 l -2.54687,6.40625 z m 6.54688,-8.84375 h 7.89062 l -3.9375,-9.96875 z"
         id="path47271"
         style="stroke-width:1.12564" />
      <path
         d="m 292.10937,75.245266 v -3.1875 q -2.45312,3.578125 -5.95312,3.578125 -2.21875,0 -3.53125,-1.390625 -1.3125,-1.40625 -1.3125,-3.78125 v -12.1875 h 3.07812 v 11.1875 q 0,1.90625 0.54688,2.71875 0.5625,0.796875 1.85937,0.796875 2.8125,0 5.3125,-3.703125 v -11 h 3.07813 v 16.96875 z"
         id="path47273"
         style="stroke-width:1.12564" />
      <path
         d="m 308.92187,75.245266 q -1.42187,0.390625 -2.46875,0.390625 -2.34375,0 -3.65625,-1.34375 -1.3125,-1.34375 -1.3125,-3.734375 v -9.96875 h -2.125 v -2.3125 h 2.125 v -3.078125 l 3.07813,-0.296875 v 3.375 H 309 v 2.3125 h -4.4375 v 9.40625 q 0,3.328125 2.875,3.328125 0.60937,0 1.48437,-0.203125 z"
         id="path47275"
         style="stroke-width:1.12564" />
      <path
         d="M 313.32812,75.245266 V 50.573391 h 3.07813 v 10.890625 q 2.4375,-3.5625 5.96875,-3.5625 2.21875,0 3.51562,1.40625 1.3125,1.390625 1.3125,3.75 v 12.1875 H 324.125 v -11.1875 q 0,-1.890625 -0.5625,-2.6875 -0.54688,-0.8125 -1.82813,-0.8125 -2.82812,0 -5.32812,3.703125 v 10.984375 z"
         id="path47277"
         style="stroke-width:1.12564" />
      <path
         d="m 345.625,74.698391 q -3.09375,0.9375 -5.29688,0.9375 -3.76562,0 -6.125,-2.484375 -2.35937,-2.5 -2.35937,-6.46875 0,-3.859375 2.07812,-6.328125 2.09375,-2.46875 5.34375,-2.46875 3.07813,0 4.75,2.203125 1.6875,2.1875 1.6875,6.21875 l -0.0156,0.9375 h -10.70313 q 0.67188,6.046875 5.92188,6.046875 1.92187,0 4.71875,-1.03125 z m -10.5,-9.765625 h 7.48437 q 0,-4.734375 -3.53125,-4.734375 -3.54687,0 -3.95312,4.734375 z"
         id="path47279"
         style="stroke-width:1.12564" />
      <path
         d="m 351.01562,75.245266 v -16.96875 h 3.07813 v 3.1875 q 2.4375,-3.5625 5.96875,-3.5625 2.21875,0 3.51562,1.40625 1.3125,1.390625 1.3125,3.75 v 12.1875 h -3.07812 v -11.1875 q 0,-1.890625 -0.5625,-2.6875 -0.54688,-0.8125 -1.82813,-0.8125 -2.82812,0 -5.32812,3.703125 v 10.984375 z"
         id="path47281"
         style="stroke-width:1.12564" />
      <path
         d="m 378.4375,75.245266 q -1.42188,0.390625 -2.46875,0.390625 -2.34375,0 -3.65625,-1.34375 Q 371,72.948391 371,70.557766 v -9.96875 h -2.125 v -2.3125 H 371 v -3.078125 l 3.07812,-0.296875 v 3.375 h 4.4375 v 2.3125 h -4.4375 v 9.40625 q 0,3.328125 2.875,3.328125 0.60938,0 1.48438,-0.203125 z"
         id="path47283"
         style="stroke-width:1.12564" />
      <path
         d="m 382.84375,75.245266 v -16.96875 h 3.07812 v 16.96875 z m 0,-20.046875 v -3.078125 h 3.07812 v 3.078125 z"
         id="path47285"
         style="stroke-width:1.12564" />
      <path
         d="m 403.875,74.729641 q -2.98438,0.90625 -5.15625,0.90625 -3.4375,0 -5.70313,-2.546875 -2.26562,-2.546875 -2.26562,-6.421875 0,-4.140625 2.23437,-6.453125 2.25,-2.3125 6.26563,-2.3125 1.98437,0 4.4375,0.546875 v 2.578125 q -2.60938,-0.765625 -4.25,-0.765625 -2.375,0 -3.79688,1.78125 -1.42187,1.765625 -1.42187,4.71875 0,2.859375 1.46875,4.625 1.46875,1.765625 3.84375,1.765625 2.10937,0 4.34375,-1.078125 z"
         id="path47287"
         style="stroke-width:1.12564" />
      <path
         d="m 417.23437,73.089016 q -2.76562,2.546875 -5.32812,2.546875 -2.10938,0 -3.5,-1.3125 -1.39063,-1.328125 -1.39063,-3.34375 0,-2.78125 2.32813,-4.265625 2.34375,-1.5 6.71875,-1.5 h 0.71875 v -2.046875 q 0,-2.953125 -3.07813,-2.953125 -2.39062,0 -5.21875,1.5 v -2.546875 q 3.10938,-1.265625 5.85938,-1.265625 2.82812,0 4.17187,1.296875 1.34375,1.28125 1.34375,3.96875 v 7.6875 q 0,2.640625 1.625,2.640625 0.20313,0 0.59375,-0.0625 l 0.21875,1.703125 q -1.04687,0.5 -2.3125,0.5 -2.15625,0 -2.75,-2.546875 z m -0.45312,-1.671875 v -4.390625 l -0.98438,-0.03125 q -2.5625,0 -4.14062,0.953125 -1.5625,0.953125 -1.5625,2.53125 0,1.109375 0.78125,1.875 0.78125,0.765625 1.90625,0.765625 1.92187,0 4,-1.703125 z"
         id="path47289"
         style="stroke-width:1.12564" />
      <path
         d="m 433.71875,75.245266 q -1.42188,0.390625 -2.46875,0.390625 -2.34375,0 -3.65625,-1.34375 -1.3125,-1.34375 -1.3125,-3.734375 v -9.96875 h -2.125 v -2.3125 h 2.125 v -3.078125 l 3.07812,-0.296875 v 3.375 h 4.4375 v 2.3125 h -4.4375 v 9.40625 q 0,3.328125 2.875,3.328125 0.60938,0 1.48438,-0.203125 z"
         id="path47291"
         style="stroke-width:1.12564" />
      <path
         d="m 438.125,75.245266 v -16.96875 h 3.07812 v 16.96875 z m 0,-20.046875 v -3.078125 h 3.07812 v 3.078125 z"
         id="path47293"
         style="stroke-width:1.12564" />
      <path
         d="m 454.125,75.635891 q -3.73438,0 -5.92188,-2.390625 -2.17187,-2.390625 -2.17187,-6.484375 0,-4.09375 2.17187,-6.46875 2.1875,-2.390625 5.92188,-2.390625 3.73437,0 5.90625,2.390625 2.1875,2.375 2.1875,6.46875 0,4.09375 -2.1875,6.484375 -2.17188,2.390625 -5.90625,2.390625 z m 0,-2.3125 q 2.29687,0 3.5625,-1.71875 1.26562,-1.71875 1.26562,-4.84375 0,-3.125 -1.26562,-4.828125 -1.26563,-1.71875 -3.5625,-1.71875 -2.29688,0 -3.5625,1.71875 -1.25,1.703125 -1.25,4.828125 0,3.125 1.25,4.84375 1.26562,1.71875 3.5625,1.71875 z"
         id="path47295"
         style="stroke-width:1.12564" />
      <path
         d="m 467.03125,75.245266 v -16.96875 h 3.07812 v 3.1875 q 2.4375,-3.5625 5.96875,-3.5625 2.21875,0 3.51563,1.40625 1.3125,1.390625 1.3125,3.75 v 12.1875 h -3.07813 v -11.1875 q 0,-1.890625 -0.5625,-2.6875 -0.54687,-0.8125 -1.82812,-0.8125 -2.82813,0 -5.32813,3.703125 v 10.984375 z"
         id="path47297"
         style="stroke-width:1.12564" />
      <path
         d="m 496.92187,75.245266 v -23.125 h 6.29688 q 2.71875,0 4.1875,0.453125 1.48437,0.4375 2.42187,1.5625 1.23438,1.484375 1.23438,4.046875 0,3.6875 -2.5,5.78125 -2.5,2.09375 -6.9375,2.09375 h -1.45313 v 9.1875 z m 3.25,-11.671875 H 501.5 q 2.92187,0 4.51562,-1.34375 1.59375,-1.34375 1.59375,-3.8125 0,-2.0625 -1.26562,-2.953125 -1.25,-0.890625 -4.15625,-0.890625 h -2.01563 z"
         id="path47299"
         style="stroke-width:1.12564" />
      <path
         d="m 514.70312,75.245266 v -16.96875 h 3.07813 v 3.1875 q 1.82812,-3.5625 5.3125,-3.5625 0.46875,0 0.98437,0.07813 v 2.875 q -0.79687,-0.265625 -1.40625,-0.265625 -2.92187,0 -4.89062,3.46875 v 11.1875 z"
         id="path47301"
         style="stroke-width:1.12564" />
      <path
         d="m 534.54687,75.635891 q -3.73437,0 -5.92187,-2.390625 -2.17188,-2.390625 -2.17188,-6.484375 0,-4.09375 2.17188,-6.46875 2.1875,-2.390625 5.92187,-2.390625 3.73438,0 5.90625,2.390625 2.1875,2.375 2.1875,6.46875 0,4.09375 -2.1875,6.484375 -2.17187,2.390625 -5.90625,2.390625 z m 0,-2.3125 q 2.29688,0 3.5625,-1.71875 1.26563,-1.71875 1.26563,-4.84375 0,-3.125 -1.26563,-4.828125 -1.26562,-1.71875 -3.5625,-1.71875 -2.29687,0 -3.5625,1.71875 -1.25,1.703125 -1.25,4.828125 0,3.125 1.25,4.84375 1.26563,1.71875 3.5625,1.71875 z"
         id="path47303"
         style="stroke-width:1.12564" />
      <path
         d="m 550.96875,75.245266 -6.3125,-16.96875 h 3.07812 l 4.9375,13.203125 5.20313,-13.203125 h 2.875 l -6.70313,16.96875 z"
         id="path47305"
         style="stroke-width:1.12564" />
      <path
         d="m 564.01562,75.245266 v -16.96875 h 3.07813 v 16.96875 z m 0,-20.046875 v -3.078125 h 3.07813 v 3.078125 z"
         id="path47307"
         style="stroke-width:1.12564" />
      <path
         d="m 584.15625,75.245266 v -3.1875 q -1.875,3.578125 -5.65625,3.578125 -3.0625,0 -4.82813,-2.234375 -1.75,-2.234375 -1.75,-6.109375 0,-4.234375 1.98438,-6.8125 2,-2.578125 5.25,-2.578125 3.01562,0 5,2.3125 V 50.573391 H 587.25 v 24.671875 z m 0,-12.921875 q -2.39063,-2.109375 -4.53125,-2.109375 -2.10938,0 -3.26563,1.765625 -1.15625,1.765625 -1.15625,5 0,5.953125 3.9375,5.953125 2.5625,0 5.01563,-2.796875 z"
         id="path47309"
         style="stroke-width:1.12564" />
      <path
         d="m 605.84375,74.698391 q -3.09375,0.9375 -5.29688,0.9375 -3.76562,0 -6.125,-2.484375 -2.35937,-2.5 -2.35937,-6.46875 0,-3.859375 2.07812,-6.328125 2.09375,-2.46875 5.34375,-2.46875 3.07813,0 4.75,2.203125 1.6875,2.1875 1.6875,6.21875 l -0.0156,0.9375 h -10.70313 q 0.67188,6.046875 5.92188,6.046875 1.92187,0 4.71875,-1.03125 z m -10.5,-9.765625 h 7.48437 q 0,-4.734375 -3.53125,-4.734375 -3.54687,0 -3.95312,4.734375 z"
         id="path47311"
         style="stroke-width:1.12564" />
      <path
         d="m 611.23437,75.245266 v -16.96875 h 3.07813 v 3.1875 q 1.82812,-3.5625 5.3125,-3.5625 0.46875,0 0.98437,0.07813 v 2.875 q -0.79687,-0.265625 -1.40625,-0.265625 -2.92187,0 -4.89062,3.46875 v 11.1875 z"
         id="path47313"
         style="stroke-width:1.12564" />
    </g>
  </g>
</svg>
