<svg width="561" height="131" viewBox="0 0 561 131" fill="none" xmlns="http://www.w3.org/2000/svg">
<path fill-rule="evenodd" clip-rule="evenodd" d="M12 130.6H112.18C118.78 130.6 124.18 125.2 124.19 118.6V18.4102C124.19 11.8102 118.79 6.41016 112.19 6.41016H12C5.4 6.41016 0 11.8102 0 18.4102V118.6C0 125.2 5.4 130.6 12 130.6ZM15.29 57.0104C14.1 59.1004 13.41 61.3104 12.64 63.8204C12.34 65.4304 12.22 67.5104 12.64 69.7804C12.708 70.0844 12.7728 70.3885 12.8376 70.6925C12.9348 71.1485 13.032 71.6044 13.14 72.0604C14.47 77.6804 16.89 82.7604 21 86.8704C23.4458 89.3072 26.0464 91.6056 28.64 93.8977C28.9202 94.1453 29.2002 94.3928 29.48 94.6404C30.541 95.5843 31.6636 96.4569 32.8251 97.3597C33.3495 97.7673 33.8819 98.1811 34.42 98.6104C34.7995 97.9398 35.1809 97.2715 35.5617 96.6045C39.876 89.0455 44.1025 81.6406 44.47 72.6904C44.71 73.3504 44.87 74.0204 45.02 74.7004C45.0355 74.7684 45.0509 74.8365 45.0664 74.9045C45.7503 77.9171 46.4357 80.9363 48.46 83.4104C52.63 88.4904 57.32 93.0604 62.15 97.5004C62.43 97.7604 63.5 98.0504 64.27 97.6404C65.53 96.8304 65.94 96.4704 66.92 95.5204C70.65 91.9204 74.29 88.2104 77.93 84.5004C79.88 82.5204 81.15 80.1404 81.76 77.4204C81.9693 76.485 82.1958 75.5538 82.4226 74.6213C82.5424 74.1283 82.6624 73.635 82.78 73.1404C83.46 82.1104 86.5 90.3504 90.14 98.5904C90.497 98.2999 90.8344 98.0327 91.1564 97.7777C91.7546 97.3039 92.3 96.8719 92.82 96.4104C93.7851 95.545 94.7656 94.6941 95.746 93.8433C98.2095 91.7056 100.673 89.5681 102.89 87.2004C104.59 85.3871 105.938 83.2342 107.28 81.091C107.707 80.4094 108.133 79.7288 108.57 79.0604C109.21 78.0804 109.73 76.9504 110.03 75.8204C110.8 73.6804 111.3 71.6304 111.49 69.0704C111.504 68.8863 111.518 68.7053 111.532 68.5268C111.659 66.8924 111.769 65.4693 111.49 63.8104C110.97 61.5204 110.29 59.2804 109.12 57.3704C104.46 49.7504 97.85 44.4304 89.39 41.4304C84.62 39.7404 79.7 38.7804 74.71 38.1604C73.02 37.9504 71.28 37.8204 69.58 37.9404C66.89 38.1304 65.78 40.2604 64.97 42.4204C64.2001 44.4642 63.5331 46.552 62.8695 48.629C62.585 49.5196 62.3011 50.4082 62.01 51.2904C62.0041 51.2727 61.9585 51.1237 61.882 50.8737C61.4404 49.4305 59.9683 44.6199 59.15 42.2504C58.04 39.0704 56.31 37.8504 52.92 37.9504C50.73 38.0104 48.54 38.2704 46.38 38.6004C39.9 39.5804 33.64 41.2804 27.99 44.7304C22.85 47.8604 18.3 51.7104 15.29 57.0104Z" fill="white"/>
<path d="M556.7 1.11C557.99 1.85 559.01 2.87 559.75 4.16C560.49 5.45 560.86 6.89 560.86 8.46C560.86 10.04 560.48 11.48 559.73 12.79C558.97 14.1 557.95 15.13 556.64 15.89C555.33 16.65 553.9 17.02 552.32 17.02C550.74 17.02 549.31 16.64 548.02 15.89C546.73 15.13 545.71 14.11 544.96 12.8C544.21 11.5 543.84 10.07 543.84 8.51C543.84 6.95 544.21 5.52 544.96 4.22C545.71 2.92 546.73 1.89 548.03 1.13C549.33 0.380001 550.78 0 552.37 0C553.96 0 555.4 0.370001 556.7 1.11ZM555.83 14.53C556.88 13.91 557.71 13.07 558.31 12C558.91 10.93 559.21 9.75 559.21 8.47C559.21 7.17 558.92 6 558.33 4.95C557.74 3.91 556.93 3.08 555.88 2.48C554.84 1.88 553.66 1.58 552.36 1.58C551.06 1.58 549.89 1.89 548.84 2.5C547.8 3.11 546.98 3.95 546.38 5.01C545.79 6.07 545.49 7.24 545.49 8.53C545.49 9.82 545.79 10.99 546.38 12.05C546.97 13.11 547.79 13.95 548.83 14.56C549.87 15.17 551.03 15.48 552.31 15.48C553.59 15.48 554.78 15.14 555.83 14.53ZM556.36 8.91C556.06 9.4 555.62 9.78 555.05 10.06L557.1 13.19H554.59L552.83 10.49H552.73H551.16V13.19H548.65V3.84H552.72C553.99 3.84 554.99 4.14 555.71 4.74C556.43 5.34 556.79 6.15 556.79 7.16C556.8 7.84 556.66 8.42 556.36 8.91ZM552.56 8.61C553.12 8.61 553.56 8.49 553.87 8.24C554.18 7.99 554.34 7.63 554.34 7.17C554.34 6.7 554.18 6.34 553.87 6.09C553.56 5.83 553.12 5.7 552.56 5.7H551.14V8.62H552.56V8.61Z" fill="white"/>
<path d="M198.08 66.8598L198.01 35.7798L182.77 61.3798H177.37L162.19 36.4398V66.8498H150.94V15.0498H160.86L180.25 47.2398L199.34 15.0498H209.18L209.33 66.8498H198.08V66.8598Z" fill="white"/>
<path d="M251.07 30.8504C254.37 33.7904 256.03 38.2104 256.03 44.1304V66.8504H245.23V61.8904C243.06 65.5904 239.01 67.4404 233.09 67.4404C230.03 67.4404 227.38 66.9204 225.13 65.8904C222.88 64.8504 221.17 63.4204 219.99 61.6004C218.81 59.7804 218.21 57.7004 218.21 55.3804C218.21 51.6804 219.6 48.7704 222.39 46.6504C225.18 44.5304 229.48 43.4704 235.3 43.4704H244.48C244.48 40.9504 243.71 39.0204 242.19 37.6604C240.66 36.3004 238.37 35.6204 235.31 35.6204C233.19 35.6204 231.1 35.9504 229.06 36.6204C227.01 37.2904 225.27 38.1904 223.84 39.3204L219.7 31.2504C221.87 29.7204 224.47 28.5404 227.51 27.7004C230.54 26.8604 233.66 26.4404 236.87 26.4404C243.02 26.4504 247.76 27.9204 251.07 30.8504ZM241.22 58.3104C242.75 57.4004 243.83 56.0504 244.48 54.2804V50.2104H236.56C231.82 50.2104 229.46 51.7604 229.46 54.8704C229.46 56.3504 230.04 57.5204 231.2 58.3804C232.36 59.2404 233.95 59.6704 235.97 59.6704C237.94 59.6804 239.69 59.2204 241.22 58.3104Z" fill="white"/>
<path d="M300.09 29.0002C303.12 30.7002 305.5 33.1002 307.23 36.1802C308.96 39.2602 309.82 42.8502 309.82 46.9502C309.82 51.0502 308.96 54.6302 307.23 57.7202C305.5 60.8002 303.12 63.2002 300.09 64.9002C297.06 66.6002 293.69 67.4502 289.99 67.4502C284.91 67.4502 280.91 65.8502 278 62.6402V81.2102H266.46V27.0402H277.49V31.6302C280.35 28.1802 284.52 26.4502 290 26.4502C293.69 26.4502 297.06 27.3002 300.09 29.0002ZM295.28 54.9802C297.18 52.9802 298.13 50.3102 298.13 46.9502C298.13 43.6002 297.18 40.9202 295.28 38.9202C293.38 36.9202 290.95 35.9202 287.99 35.9202C285.03 35.9202 282.6 36.9202 280.7 38.9202C278.8 40.9202 277.85 43.5902 277.85 46.9502C277.85 50.3002 278.8 52.9802 280.7 54.9802C282.6 56.9802 285.03 57.9802 287.99 57.9802C290.95 57.9802 293.38 56.9802 295.28 54.9802Z" fill="white"/>
<path d="M323.47 66.0802C319.65 64.9702 316.58 63.5302 314.26 61.7502L318.33 52.7202C320.55 54.3502 323.19 55.6602 326.25 56.6402C329.31 57.6302 332.37 58.1202 335.43 58.1202C338.83 58.1202 341.35 57.6102 342.98 56.6002C344.61 55.5902 345.42 54.2402 345.42 52.5702C345.42 51.3402 344.94 50.3102 343.98 49.5002C343.02 48.6902 341.78 48.0302 340.28 47.5402C338.77 47.0502 336.74 46.5002 334.17 45.9102C330.22 44.9702 326.99 44.0402 324.48 43.1002C321.96 42.1602 319.81 40.6602 318 38.5902C316.2 36.5202 315.3 33.7602 315.3 30.3002C315.3 27.2902 316.11 24.5702 317.74 22.1202C319.37 19.6702 321.82 17.7402 325.1 16.3102C328.38 14.8802 332.39 14.1602 337.13 14.1602C340.43 14.1602 343.67 14.5602 346.82 15.3402C349.98 16.1302 352.74 17.2602 355.11 18.7402L351.41 27.8402C346.62 25.1302 341.84 23.7702 337.05 23.7702C333.69 23.7702 331.22 24.3102 329.61 25.4002C328.01 26.4902 327.21 27.9202 327.21 29.6902C327.21 31.4702 328.13 32.7902 329.98 33.6502C331.83 34.5102 334.65 35.3602 338.45 36.2002C342.4 37.1402 345.63 38.0802 348.14 39.0102C350.66 39.9502 352.81 41.4302 354.62 43.4502C356.42 45.4702 357.32 48.2102 357.32 51.6602C357.32 54.6202 356.49 57.3202 354.84 59.7602C353.19 62.2002 350.71 64.1402 347.4 65.5702C344.09 67.0002 340.07 67.7202 335.34 67.7202C331.25 67.7402 327.29 67.1902 323.47 66.0802Z" fill="white"/>
<path d="M390.4 64.9302C389.26 65.7702 387.87 66.4002 386.22 66.8202C384.57 67.2402 382.83 67.4502 381 67.4502C376.26 67.4502 372.6 66.2402 370.01 63.8202C367.42 61.4002 366.13 57.8502 366.13 53.1602V36.8102H359.99V27.9302H366.13V18.2402H377.67V27.9302H387.59V36.8102H377.67V53.0202C377.67 54.7002 378.1 55.9902 378.96 56.9002C379.82 57.8102 381.04 58.2702 382.62 58.2702C384.44 58.2702 386 57.7802 387.28 56.7902L390.4 64.9302Z" fill="white"/>
<path d="M427.18 30.8504C430.48 33.7904 432.14 38.2104 432.14 44.1304V66.8504H421.34V61.8904C419.17 65.5904 415.12 67.4404 409.2 67.4404C406.14 67.4404 403.49 66.9204 401.24 65.8904C398.99 64.8504 397.28 63.4204 396.1 61.6004C394.92 59.7804 394.32 57.7004 394.32 55.3804C394.32 51.6804 395.71 48.7704 398.5 46.6504C401.29 44.5304 405.59 43.4704 411.41 43.4704H420.59C420.59 40.9504 419.82 39.0204 418.3 37.6604C416.77 36.3004 414.48 35.6204 411.42 35.6204C409.3 35.6204 407.21 35.9504 405.17 36.6204C403.12 37.2904 401.38 38.1904 399.95 39.3204L395.81 31.2504C397.98 29.7204 400.58 28.5404 403.62 27.7004C406.65 26.8604 409.77 26.4404 412.98 26.4404C419.14 26.4504 423.88 27.9204 427.18 30.8504ZM417.34 58.3104C418.87 57.4004 419.95 56.0504 420.6 54.2804V50.2104H412.68C407.94 50.2104 405.58 51.7604 405.58 54.8704C405.58 56.3504 406.16 57.5204 407.32 58.3804C408.48 59.2404 410.07 59.6704 412.09 59.6704C414.06 59.6804 415.81 59.2204 417.34 58.3104Z" fill="white"/>
<path d="M478.72 30.8904C481.75 33.8504 483.27 38.2404 483.27 44.0604V66.8504H471.73V45.8404C471.73 42.6804 471.04 40.3304 469.66 38.7704C468.28 37.2204 466.28 36.4404 463.67 36.4404C460.76 36.4404 458.44 37.3404 456.71 39.1404C454.98 40.9404 454.12 43.6204 454.12 47.1704V66.8504H442.58V27.0404H453.61V31.7004C455.14 30.0204 457.04 28.7304 459.31 27.8104C461.58 26.9004 464.07 26.4404 466.78 26.4404C471.7 26.4504 475.69 27.9304 478.72 30.8904Z" fill="white"/>
<path d="M534.7 11.9502V66.8602H523.67V62.2702C520.81 65.7202 516.67 67.4502 511.24 67.4502C507.49 67.4502 504.1 66.6102 501.07 64.9302C498.04 63.2502 495.65 60.8602 493.93 57.7502C492.2 54.6402 491.34 51.0402 491.34 46.9502C491.34 42.8602 492.2 39.2502 493.93 36.1502C495.66 33.0402 498.04 30.6502 501.07 28.9702C504.1 27.2902 507.49 26.4502 511.24 26.4502C516.32 26.4502 520.29 28.0502 523.15 31.2602V11.9502H534.7ZM520.49 54.9802C522.41 52.9802 523.38 50.3102 523.38 46.9502C523.38 43.6002 522.42 40.9202 520.49 38.9202C518.56 36.9202 516.15 35.9202 513.24 35.9202C510.28 35.9202 507.84 36.9202 505.91 38.9202C503.98 40.9202 503.02 43.5902 503.02 46.9502C503.02 50.3002 503.98 52.9802 505.91 54.9802C507.84 56.9802 510.28 57.9802 513.24 57.9802C516.15 57.9802 518.57 56.9802 520.49 54.9802Z" fill="white"/>
<path d="M198.08 67.2299L198.01 36.1499L182.77 61.7499H177.37L162.2 36.8099V67.2199H150.95V15.4199H160.87L180.26 47.6099L199.35 15.4199H209.19L209.34 67.2199H198.08V67.2299Z" fill="white"/>
<path d="M151 104.18H154.75V121.24H165.32V124.43H150.95V104.19H151V104.18Z" fill="white"/>
<path d="M171.92 123.359C170.24 122.469 168.96 121.229 168.01 119.609C167.06 118.039 166.61 116.249 166.61 114.299C166.61 112.339 167.06 110.549 168.01 108.989C168.96 107.419 170.25 106.139 171.92 105.239C173.6 104.349 175.44 103.899 177.51 103.899C179.58 103.899 181.42 104.349 183.1 105.239C184.78 106.129 186.06 107.369 187.01 108.929C187.96 110.499 188.41 112.289 188.41 114.299C188.41 116.309 187.96 118.049 187.01 119.669C186.06 121.239 184.77 122.469 183.1 123.359C181.42 124.249 179.58 124.699 177.51 124.699C175.44 124.699 173.54 124.249 171.92 123.359ZM181.14 120.509C182.2 119.889 183.04 119.059 183.71 117.939C184.33 116.879 184.66 115.649 184.66 114.309C184.66 112.969 184.32 111.739 183.71 110.679C183.09 109.619 182.26 108.719 181.14 108.109C180.08 107.489 178.85 107.219 177.51 107.219C176.17 107.219 174.94 107.499 173.88 108.109C172.82 108.729 171.98 109.559 171.31 110.679C170.64 111.799 170.36 112.969 170.36 114.309C170.36 115.649 170.7 116.879 171.31 117.939C171.93 118.999 172.76 119.899 173.88 120.509C174.94 121.129 176.17 121.399 177.51 121.399C178.85 121.399 180.08 121.119 181.14 120.509Z" fill="white"/>
<path d="M196.3 123.359C194.68 122.469 193.34 121.229 192.44 119.669C191.49 118.099 191.04 116.309 191.04 114.299C191.04 112.289 191.49 110.549 192.44 108.929C193.39 107.359 194.68 106.129 196.35 105.239C197.97 104.349 199.87 103.899 201.89 103.899C203.57 103.899 205.08 104.179 206.42 104.789C207.76 105.349 208.94 106.189 209.89 107.309L207.49 109.599C206.04 108.029 204.25 107.249 202.07 107.249C200.67 107.249 199.44 107.529 198.32 108.139C197.2 108.759 196.36 109.589 195.75 110.659C195.13 111.719 194.8 112.949 194.8 114.349C194.8 115.749 195.14 116.919 195.75 118.039C196.37 119.159 197.2 119.939 198.32 120.559C199.44 121.179 200.67 121.449 202.07 121.449C204.2 121.449 206.04 120.669 207.49 119.049L209.89 121.339C208.94 122.459 207.76 123.299 206.42 123.859C205.02 124.419 203.51 124.749 201.89 124.749C199.76 124.699 197.92 124.249 196.3 123.359Z" fill="white"/>
<path d="M226.27 119.72H216.15L214.14 124.42H210.28L219.4 104.18H223.09L232.26 124.42H228.35L226.27 119.72ZM224.98 116.76L221.18 107.92L217.38 116.76H224.98Z" fill="white"/>
<path d="M237.96 107.36H231.25V104.17H248.42V107.36H241.71V124.42H237.96V107.36Z" fill="white"/>
<path d="M251.32 104.18H255.07V124.42H251.32V104.18Z" fill="white"/>
<path d="M264.47 123.359C262.79 122.469 261.51 121.229 260.56 119.609C259.61 118.039 259.16 116.249 259.16 114.299C259.16 112.339 259.61 110.549 260.56 108.989C261.51 107.419 262.8 106.139 264.47 105.239C266.15 104.349 267.99 103.899 270.06 103.899C272.13 103.899 273.97 104.349 275.65 105.239C277.33 106.129 278.61 107.369 279.56 108.929C280.51 110.499 280.96 112.289 280.96 114.299C280.96 116.309 280.51 118.049 279.56 119.669C278.61 121.239 277.32 122.469 275.65 123.359C273.97 124.249 272.13 124.699 270.06 124.699C267.99 124.699 266.14 124.249 264.47 123.359ZM273.69 120.509C274.75 119.889 275.59 119.059 276.26 117.939C276.88 116.879 277.21 115.649 277.21 114.309C277.21 112.969 276.87 111.739 276.26 110.679C275.65 109.619 274.81 108.719 273.69 108.109C272.63 107.489 271.4 107.219 270.06 107.219C268.72 107.219 267.49 107.499 266.43 108.109C265.37 108.729 264.53 109.559 263.86 110.679C263.19 111.799 262.91 112.969 262.91 114.309C262.91 115.649 263.25 116.879 263.86 117.939C264.48 118.999 265.31 119.899 266.43 120.509C267.49 121.129 268.72 121.399 270.06 121.399C271.4 121.399 272.63 121.119 273.69 120.509Z" fill="white"/>
<path d="M303 104.18V124.42H299.92L288.74 110.72V124.42H284.99V104.18H288.07L299.25 117.88V104.18H303Z" fill="white"/>
<path d="M319.35 104.18H323.1V124.42H319.35V104.18Z" fill="white"/>
<path d="M346.64 104.18V124.42H343.56L332.38 110.72V124.42H328.63V104.18H331.71L342.89 117.88V104.18H346.64Z" fill="white"/>
<path d="M356.2 107.36H349.49V104.17H366.66V107.36H359.95V124.42H356.2V107.36V107.36Z" fill="white"/>
<path d="M384.78 121.29V124.42H369.57V104.18H384.33V107.31H373.31V112.57H383.15V115.65H373.36V121.24H384.77V121.29H384.78Z" fill="white"/>
<path d="M389.03 104.18H392.78V121.24H403.35V124.43H388.98V104.19H389.03V104.18Z" fill="white"/>
<path d="M406.42 104.18H410.17V121.24H420.74V124.43H406.36V104.19H406.42V104.18Z" fill="white"/>
<path d="M423.81 104.18H427.56V124.42H423.81V104.18Z" fill="white"/>
<path d="M446.91 114.07H450.49V122.12C449.43 122.96 448.25 123.57 446.86 124.02C445.47 124.47 444.06 124.69 442.55 124.69C440.48 124.69 438.64 124.24 436.96 123.35C435.28 122.46 434 121.22 433.05 119.66C432.1 118.09 431.65 116.3 431.65 114.29C431.65 112.28 432.1 110.54 433.05 108.92C434 107.35 435.29 106.12 436.96 105.23C438.64 104.34 440.48 103.89 442.61 103.89C444.29 103.89 445.85 104.17 447.25 104.73C448.65 105.29 449.82 106.13 450.77 107.19L448.42 109.48C446.85 107.91 445.01 107.19 442.83 107.19C441.38 107.19 440.15 107.47 439.03 108.08C437.91 108.69 437.07 109.53 436.4 110.6C435.78 111.66 435.45 112.89 435.45 114.29C435.45 115.63 435.79 116.86 436.4 117.92C437.02 118.98 437.91 119.88 439.03 120.49C440.15 121.1 441.38 121.44 442.83 121.44C444.4 121.44 445.79 121.1 446.97 120.38V114.06H446.91V114.07Z" fill="white"/>
<path d="M470.67 121.29V124.42H455.46V104.18H470.22V107.31H459.2V112.57H468.99V115.65H459.2V121.24H470.66V121.29H470.67Z" fill="white"/>
<path d="M492.93 104.18V124.42H489.85L478.67 110.72V124.42H474.92V104.18H478L489.18 117.88V104.18H492.93Z" fill="white"/>
<path d="M502.27 123.359C500.65 122.469 499.31 121.229 498.41 119.669C497.46 118.099 497.01 116.309 497.01 114.299C497.01 112.289 497.46 110.549 498.41 108.929C499.36 107.359 500.65 106.129 502.32 105.239C504 104.349 505.84 103.899 507.86 103.899C509.54 103.899 511.05 104.179 512.39 104.789C513.73 105.349 514.91 106.189 515.86 107.309L513.46 109.599C512.01 108.029 510.22 107.249 508.04 107.249C506.64 107.249 505.41 107.529 504.29 108.139C503.17 108.759 502.33 109.589 501.72 110.659C501.1 111.719 500.77 112.949 500.77 114.349C500.77 115.749 501.11 116.919 501.72 118.039C502.34 119.099 503.17 119.939 504.29 120.559C505.41 121.179 506.64 121.449 508.04 121.449C510.17 121.449 512.01 120.669 513.46 119.049L515.86 121.339C514.91 122.459 513.73 123.299 512.39 123.859C510.99 124.419 509.48 124.749 507.86 124.749C505.79 124.699 503.95 124.249 502.27 123.359Z" fill="white"/>
<path d="M534.7 121.29V124.42H519.49V104.18H534.25V107.31H523.23V112.57H533.02V115.65H523.23V121.24H534.69V121.29H534.7Z" fill="white"/>
</svg>
